<?xml version="1.0" encoding="UTF-8"?>
<svg version="1.1" xmlns="http://www.w3.org/2000/svg" width="105" height="104">
<path d="M0 0 C3.91282553 0.06219809 4.74083344 0.08992073 7.75 2.8125 C9.125 5.4375 9.125 5.4375 9.125 7.4375 C10.23875 8.18 10.23875 8.18 11.375 8.9375 C14.75872297 12.01361179 15.68459389 14.83630503 17.1328125 19.09765625 C18.16086219 21.52207265 19.29363665 22.61126652 21.125 24.4375 C21.3125 27.625 21.3125 27.625 21.125 30.4375 C20.465 30.4375 19.805 30.4375 19.125 30.4375 C18.939375 31.3965625 18.939375 31.3965625 18.75 32.375 C18.54375 33.055625 18.3375 33.73625 18.125 34.4375 C17.135 34.9325 17.135 34.9325 16.125 35.4375 C16.125 35.7675 16.125 36.0975 16.125 36.4375 C16.785 36.4375 17.445 36.4375 18.125 36.4375 C18.25 39.8125 18.25 39.8125 18.125 43.4375 C16.125 45.4375 16.125 45.4375 13.875 45.8125 C10.35853287 46.61169708 8.02667772 48.34559281 5.125 50.4375 C5.455 52.4175 5.785 54.3975 6.125 56.4375 C6.78886719 56.53546875 7.45273437 56.6334375 8.13671875 56.734375 C13.45073102 57.63426613 17.2933653 58.36638813 21.125 62.4375 C22.90851831 65.4003786 23.36681052 67.54352132 23.3203125 70.984375 C23.31386719 71.82871094 23.30742188 72.67304687 23.30078125 73.54296875 C23.28402344 74.41566406 23.26726562 75.28835937 23.25 76.1875 C23.24097656 77.07566406 23.23195312 77.96382813 23.22265625 78.87890625 C23.19914577 81.06538058 23.16628499 83.25130094 23.125 85.4375 C18.45833333 85.4375 13.79166667 85.4375 9.125 85.4375 C7.990625 85.458125 6.85625 85.47875 5.6875 85.5 C2.87734086 85.45069896 0.76518619 85.28235958 -1.875 84.4375 C-1.875 84.7675 -1.875 85.0975 -1.875 85.4375 C-9.465 85.4375 -17.055 85.4375 -24.875 85.4375 C-24.978125 82.42625 -25.08125 79.415 -25.1875 76.3125 C-25.23302002 75.37519043 -25.27854004 74.43788086 -25.32543945 73.47216797 C-25.39486977 69.26603433 -25.28209433 66.31800425 -22.60546875 62.9453125 C-18.59337021 59.26038079 -16.01947584 58.23837967 -10.625 57.8125 C-9.73296875 57.73773438 -8.8409375 57.66296875 -7.921875 57.5859375 C-7.24640625 57.53695312 -6.5709375 57.48796875 -5.875 57.4375 C-5.545 55.1275 -5.215 52.8175 -4.875 50.4375 C-5.803125 49.9425 -6.73125 49.4475 -7.6875 48.9375 C-10.80978188 46.81169106 -12.23664818 44.52258632 -13.41796875 40.875 C-14.31415494 36.09534033 -14.0927469 31.27631991 -13.875 26.4375 C-15.855 27.7575 -17.835 29.0775 -19.875 30.4375 C-19.875 28.1275 -19.875 25.8175 -19.875 23.4375 C-18.885 23.1075 -17.895 22.7775 -16.875 22.4375 C-16.41220254 20.48713928 -15.95449774 18.53521391 -15.5390625 16.57421875 C-14.2098282 12.29721192 -10.98620562 9.54870562 -7.875 6.4375 C-7.71 5.7775 -7.545 5.1175 -7.375 4.4375 C-6.31681008 0.20474031 -3.88156474 0.09790297 0 0 Z M-4.875 5.4375 C-4.875 5.7675 -4.875 6.0975 -4.875 6.4375 C-1.245 6.4375 2.385 6.4375 6.125 6.4375 C6.125 6.1075 6.125 5.7775 6.125 5.4375 C2.495 5.4375 -1.135 5.4375 -4.875 5.4375 Z M0.125 13.4375 C-0.205 14.7575 -0.535 16.0775 -0.875 17.4375 C-0.215 17.1075 0.445 16.7775 1.125 16.4375 C0.795 15.4475 0.465 14.4575 0.125 13.4375 Z M1.125 16.4375 C2.125 18.4375 2.125 18.4375 2.125 18.4375 Z M-1.875 17.4375 C-0.875 19.4375 -0.875 19.4375 -0.875 19.4375 Z M-0.875 22.4375 C-0.875 23.4275 -0.875 24.4175 -0.875 25.4375 C-0.215 25.4375 0.445 25.4375 1.125 25.4375 C1.125 24.4475 1.125 23.4575 1.125 22.4375 C0.465 22.4375 -0.195 22.4375 -0.875 22.4375 Z M-6.875 26.4375 C-7.535 27.0975 -8.195 27.7575 -8.875 28.4375 C-7.885 28.7675 -6.895 29.0975 -5.875 29.4375 C-5.545 28.4475 -5.215 27.4575 -4.875 26.4375 C-5.535 26.4375 -6.195 26.4375 -6.875 26.4375 Z M4.125 26.4375 C4.455 27.4275 4.785 28.4175 5.125 29.4375 C5.785 29.4375 6.445 29.4375 7.125 29.4375 C7.455 28.4475 7.785 27.4575 8.125 26.4375 C6.805 26.4375 5.485 26.4375 4.125 26.4375 Z M14.125 40.4375 C15.125 42.4375 15.125 42.4375 15.125 42.4375 Z M-2.875 43.4375 C-2.875 43.7675 -2.875 44.0975 -2.875 44.4375 C-0.895 44.4375 1.085 44.4375 3.125 44.4375 C3.125 44.1075 3.125 43.7775 3.125 43.4375 C1.145 43.4375 -0.835 43.4375 -2.875 43.4375 Z M-9.875 59.4375 C-8.875 63.4375 -8.875 63.4375 -8.875 63.4375 Z M-8.875 63.4375 C-7.875 65.4375 -7.875 65.4375 -7.875 65.4375 Z M-1.875 64.4375 C-1.875 64.7675 -1.875 65.0975 -1.875 65.4375 C-0.225 65.4375 1.425 65.4375 3.125 65.4375 C3.125 65.1075 3.125 64.7775 3.125 64.4375 C1.475 64.4375 -0.175 64.4375 -1.875 64.4375 Z M-20.875 65.4375 C-19.875 67.4375 -19.875 67.4375 -19.875 67.4375 Z M-7.875 65.4375 C-6.875 67.4375 -6.875 67.4375 -6.875 67.4375 Z " fill="#D3B198" transform="translate(51.875,11.5625)"/>
<path d="M0 0 C10.8615201 1.6028651 10.8615201 1.6028651 15 6 C16.78351831 8.9628786 17.24181052 11.10602132 17.1953125 14.546875 C17.18886719 15.39121094 17.18242188 16.23554687 17.17578125 17.10546875 C17.15902344 17.97816406 17.14226562 18.85085937 17.125 19.75 C17.11597656 20.63816406 17.10695312 21.52632812 17.09765625 22.44140625 C17.07414577 24.62788058 17.04128499 26.81380094 17 29 C12.33333333 29 7.66666667 29 3 29 C1.865625 29.020625 0.73125 29.04125 -0.4375 29.0625 C-3.24765914 29.01319896 -5.35981381 28.84485958 -8 28 C-8 28.33 -8 28.66 -8 29 C-15.59 29 -23.18 29 -31 29 C-31.103125 25.98875 -31.20625 22.9775 -31.3125 19.875 C-31.35802002 18.93769043 -31.40354004 18.00038086 -31.45043945 17.03466797 C-31.51986977 12.82853433 -31.40709433 9.88050425 -28.73046875 6.5078125 C-24.71837021 2.82288079 -22.14447584 1.80087967 -16.75 1.375 C-15.85796875 1.30023438 -14.9659375 1.22546875 -14.046875 1.1484375 C-13.37140625 1.09945312 -12.6959375 1.05046875 -12 1 C-11.34 2.98 -10.68 4.96 -10 7 C-6.59679066 7.67673447 -6.59679066 7.67673447 -3 8 C-0.4345406 5.4345406 -0.45953913 3.52313332 0 0 Z M-16 3 C-15 7 -15 7 -15 7 Z M-15 7 C-14 9 -14 9 -14 9 Z M-27 9 C-26 11 -26 11 -26 11 Z M-14 9 C-13 11 -13 11 -13 11 Z " fill="#A0C7AD" transform="translate(58,68)"/>
<path d="M0 0 C3.91282553 0.06219809 4.74083344 0.08992073 7.75 2.8125 C9.125 5.4375 9.125 5.4375 9.125 7.4375 C10.23875 8.18 10.23875 8.18 11.375 8.9375 C14.75872297 12.01361179 15.68459389 14.83630503 17.1328125 19.09765625 C18.16086219 21.52207265 19.29363665 22.61126652 21.125 24.4375 C21.3125 27.625 21.3125 27.625 21.125 30.4375 C20.465 30.4375 19.805 30.4375 19.125 30.4375 C18.939375 31.3965625 18.939375 31.3965625 18.75 32.375 C18.54375 33.055625 18.3375 33.73625 18.125 34.4375 C17.135 34.9325 17.135 34.9325 16.125 35.4375 C16.125 32.4675 16.125 29.4975 16.125 26.4375 C15.30515625 26.15777344 14.4853125 25.87804687 13.640625 25.58984375 C3.74267875 21.90771303 3.74267875 21.90771303 1.375 17.625 C0.9625 16.573125 0.55 15.52125 0.125 14.4375 C-0.24625 15.345 -0.6175 16.2525 -1 17.1875 C-4.41174614 23.10119331 -9.81458162 24.85621069 -15.875 27.4375 C-18.21378876 29.00078365 -18.21378876 29.00078365 -19.875 30.4375 C-19.875 28.1275 -19.875 25.8175 -19.875 23.4375 C-18.885 23.1075 -17.895 22.7775 -16.875 22.4375 C-16.41220254 20.48713928 -15.95449774 18.53521391 -15.5390625 16.57421875 C-14.2098282 12.29721192 -10.98620562 9.54870562 -7.875 6.4375 C-7.71 5.7775 -7.545 5.1175 -7.375 4.4375 C-6.31681008 0.20474031 -3.88156474 0.09790297 0 0 Z M-4.875 5.4375 C-4.875 5.7675 -4.875 6.0975 -4.875 6.4375 C-1.245 6.4375 2.385 6.4375 6.125 6.4375 C6.125 6.1075 6.125 5.7775 6.125 5.4375 C2.495 5.4375 -1.135 5.4375 -4.875 5.4375 Z " fill="#B45A4D" transform="translate(51.875,11.5625)"/>
<path d="M0 0 C0.12375 0.53367187 0.2475 1.06734375 0.375 1.6171875 C3.10558736 11.48143434 9.75307077 18.36549053 17.53125 24.72265625 C18.0159375 25.14417969 18.500625 25.56570312 19 26 C19 26.33 19 26.66 19 27 C11.57142857 27.14285714 11.57142857 27.14285714 8 26 C8 26.33 8 26.66 8 27 C0.41 27 -7.18 27 -15 27 C-15.103125 23.98875 -15.20625 20.9775 -15.3125 17.875 C-15.35802002 16.93769043 -15.40354004 16.00038086 -15.45043945 15.03466797 C-15.521373 10.73746766 -15.39121866 7.87076971 -12.6015625 4.46875 C-8.31036801 0.39662549 -5.92521905 -0.26932814 0 0 Z M-11 7 C-10 9 -10 9 -10 9 Z " fill="#D77436" transform="translate(42,70)"/>
<path d="M0 0 C2.59336185 1.29668093 2.90784262 2.54821551 4.1875 5.125 C8.23067007 12.58292955 13.50574798 17.17640203 21 21 C21 21.33 21 21.66 21 22 C13.41 22 5.82 22 -2 22 C-2.04125 18.926875 -2.0825 15.85375 -2.125 12.6875 C-2.14320801 11.72287842 -2.16141602 10.75825684 -2.18017578 9.7644043 C-2.1851709 9.00039307 -2.19016602 8.23638184 -2.1953125 7.44921875 C-2.20578613 6.66893311 -2.21625977 5.88864746 -2.22705078 5.0847168 C-2 3 -2 3 0 0 Z " fill="#A0C7AE" transform="translate(29,75)"/>
<path d="M0 0 C1.875 0.5625 1.875 0.5625 4 2 C5.25 5.625 5.25 5.625 6 9 C3.5625 8.625 3.5625 8.625 1 8 C-0.35439668 5.29120665 -0.06501451 2.99066732 0 0 Z " fill="#B35B4F" transform="translate(34,48)"/>
<path d="M0 0 C0.33 0 0.66 0 1 0 C1 2.97 1 5.94 1 9 C-0.32 8.34 -1.64 7.68 -3 7 C-2.25 2.25 -2.25 2.25 0 0 Z " fill="#B15C50" transform="translate(36,39)"/>
<path d="M0 0 C0.66 0 1.32 0 2 0 C2.125 3.375 2.125 3.375 2 7 C1.34 7.66 0.68 8.32 0 9 C-0.99 8.67 -1.98 8.34 -3 8 C-2.01 5.36 -1.02 2.72 0 0 Z " fill="#B55D4F" transform="translate(68,48)"/>
</svg>
