<?xml version="1.0" encoding="UTF-8"?>
<svg version="1.1" xmlns="http://www.w3.org/2000/svg" width="105" height="104">
<path d="M0 0 C4.78202234 3.19831542 9.20442454 3.98265799 14.8125 4.625 C15.59826416 4.72224365 16.38402832 4.8194873 17.19360352 4.91967773 C20.57859058 5.23204275 22.84234471 5.41373919 25.8203125 3.65625 C26.35398437 3.1303125 26.88765625 2.604375 27.4375 2.0625 C35.11620824 -1.200951 44.13485733 -2.31489285 52.4375 -1.9375 C52.9325 -0.4525 52.9325 -0.4525 53.4375 1.0625 C42.16852734 12.84760881 25.58206712 25.33037929 9.4375 29.0625 C2.86072139 28.84440993 -2.30322384 26.74723241 -8.25 24.0625 C-15.06306608 21.02975775 -20.57253509 18.91649175 -28.125 18.9375 C-29.05441406 18.93492188 -29.98382813 18.93234375 -30.94140625 18.9296875 C-33.31988255 19.05020642 -35.27457636 19.45742928 -37.5625 20.0625 C-39.89449388 20.14155064 -42.23082622 20.15048769 -44.5625 20.0625 C-45.5625 19.0625 -45.5625 19.0625 -45.66015625 15.24609375 C-45.65348089 13.66403318 -45.64151875 12.08198841 -45.625 10.5 C-45.62048828 9.69369141 -45.61597656 8.88738281 -45.61132812 8.05664062 C-45.59950518 6.05856244 -45.58156914 4.06052217 -45.5625 2.0625 C-39.58951584 -0.90730777 -33.90130604 -1.87141581 -27.3125 -2.6875 C-25.85263672 -2.89439453 -25.85263672 -2.89439453 -24.36328125 -3.10546875 C-15.88432803 -4.19771106 -7.22452394 -5.19549097 0 0 Z M24.4375 6.0625 C25.7575 7.0525 27.0775 8.0425 28.4375 9.0625 C28.4375 8.0725 28.4375 7.0825 28.4375 6.0625 C27.1175 6.0625 25.7975 6.0625 24.4375 6.0625 Z M29.4375 9.0625 C27.9525 11.5375 27.9525 11.5375 26.4375 14.0625 C27.7575 13.7325 29.0775 13.4025 30.4375 13.0625 C30.1075 11.7425 29.7775 10.4225 29.4375 9.0625 Z M11 14.5625 C10.26845703 14.61019531 9.53691406 14.65789062 8.78320312 14.70703125 C7.00116912 14.82350406 5.21931437 14.94271416 3.4375 15.0625 C3.4375 15.3925 3.4375 15.7225 3.4375 16.0625 C6.1459017 16.08964434 8.85402721 16.10940846 11.5625 16.125 C12.32304688 16.13337891 13.08359375 16.14175781 13.8671875 16.15039062 C18.1764644 16.16896509 22.19266474 15.92367265 26.4375 15.0625 C26.4375 14.7325 26.4375 14.4025 26.4375 14.0625 C21.2663042 14.00813789 16.15858307 14.21324552 11 14.5625 Z " fill="#C99C7D" transform="translate(48.5625,59.9375)"/>
<path d="M0 0 C3 1 3 1 4.1875 2.75 C5.10819096 5.29960574 5.14948718 7.30923081 5 10 C5.515625 9.360625 6.03125 8.72125 6.5625 8.0625 C9.65935623 5.44208319 12.02067623 5.30610183 16 5 C15.85950482 6.47968324 15.71245174 7.95874516 15.5625 9.4375 C15.48128906 10.26121094 15.40007812 11.08492187 15.31640625 11.93359375 C15 14 15 14 14 15 C16.97 15.99 19.94 16.98 23 18 C23 18.99 23 19.98 23 21 C21.46875 22.38671875 21.46875 22.38671875 19.5 23.6875 C18.8503125 24.12449219 18.200625 24.56148437 17.53125 25.01171875 C17.0259375 25.33785156 16.520625 25.66398437 16 26 C16.639375 26.556875 17.27875 27.11375 17.9375 27.6875 C20.19680987 30.22066561 20.63149047 31.68341424 21 35 C20.36191406 34.98839844 19.72382812 34.97679687 19.06640625 34.96484375 C18.24011719 34.95582031 17.41382813 34.94679687 16.5625 34.9375 C15.73878906 34.92589844 14.91507813 34.91429687 14.06640625 34.90234375 C12.00836062 34.76732652 12.00836062 34.76732652 11 36 C10.60851239 37.51165654 10.26027543 39.03469632 9.9375 40.5625 C9.76089844 41.38878906 9.58429688 42.21507812 9.40234375 43.06640625 C9.26957031 43.70449219 9.13679688 44.34257813 9 45 C5.25979502 43.31847927 3.43865652 41.30960527 1 38 C-0.11375 39.4540625 -0.11375 39.4540625 -1.25 40.9375 C-2.97309915 43.02387361 -3.73868694 43.90112479 -6.3125 44.875 C-6.869375 44.91625 -7.42625 44.9575 -8 45 C-9.1577506 41.52674819 -9.06866652 38.63932552 -9 35 C-12.63 35 -16.26 35 -20 35 C-18.22157001 30.55392503 -17.35585467 29.0202692 -14 26 C-15.3921875 25.13375 -15.3921875 25.13375 -16.8125 24.25 C-19.59815842 22.28365288 -21.18738696 20.81962028 -23 18 C-19.17679443 16.57741188 -16.08718695 15.75957724 -12 16 C-12.66 15.01 -13.32 14.02 -14 13 C-14.25760279 10.30547479 -14.08900053 7.71451625 -14 5 C-10.17902761 5.53069061 -7.93828597 6.49701566 -5 9 C-4.72285156 8.43410156 -4.44570313 7.86820313 -4.16015625 7.28515625 C-3.79792969 6.55167969 -3.43570313 5.81820313 -3.0625 5.0625 C-2.70285156 4.33160156 -2.34320313 3.60070312 -1.97265625 2.84765625 C-1 1 -1 1 0 0 Z M3 11 C4 13 4 13 4 13 Z M2 13 C3 15 3 15 3 15 Z M-4 15 C-3 17 -3 17 -3 17 Z M2 31 C3 34 3 34 3 34 Z " fill="#9FC7AF" transform="translate(64,2)"/>
<path d="M0 0 C0.66 0.33 1.32 0.66 2 1 C1.10830923 4.64782588 0.58920024 6.54676905 -2.4375 8.875 C-5 10 -5 10 -8 10 C-7.52153935 5.69385411 -6.34073619 3.75119451 -3 1 C-2.01 0.67 -1.02 0.34 0 0 Z " fill="#B25A4D" transform="translate(75,47)"/>
<path d="M0 0 C2.25 -0.3125 2.25 -0.3125 5 0 C7.3125 2.25 7.3125 2.25 9 5 C9 6.32 9 7.64 9 9 C5.85669777 8.6507442 4.20508548 8.16074267 1.6875 6.1875 C0 4 0 4 0 0 Z " fill="#B35B4E" transform="translate(53,50)"/>
<path d="M0 0 C0.66 0 1.32 0 2 0 C2 4.62 2 9.24 2 14 C1.01 14 0.02 14 -1 14 C-1.02685938 11.85423363 -1.04633088 9.70837355 -1.0625 7.5625 C-1.07410156 6.36753906 -1.08570313 5.17257813 -1.09765625 3.94140625 C-1 1 -1 1 0 0 Z " fill="#B05B4E" transform="translate(64,47)"/>
</svg>
