<?xml version="1.0" encoding="UTF-8"?>
<svg version="1.1" xmlns="http://www.w3.org/2000/svg" width="105" height="104">
<path d="M0 0 C0.7734375 -0.01675781 1.546875 -0.03351562 2.34375 -0.05078125 C5.02989156 0.40177521 5.8492759 1.18301603 7.5 3.3125 C10.33542559 10.47568044 10.69418003 18.52910373 8.25 25.875 C6.5 29.3125 6.5 29.3125 4.8125 30.875 C1.22666207 31.55340177 -1.90769588 30.91121735 -5.5 30.3125 C-5.89832031 31.43205078 -5.89832031 31.43205078 -6.3046875 32.57421875 C-10.54579797 42.28996528 -20.57964746 46.29225562 -29.64550781 50.44384766 C-31.38932103 51.26065748 -33.09878259 52.14968757 -34.8046875 53.04296875 C-37.5 54.3125 -37.5 54.3125 -40.5 54.3125 C-40.39171875 55.74529297 -40.39171875 55.74529297 -40.28125 57.20703125 C-39.72708184 64.92690154 -39.35507663 72.56715097 -39.5 80.3125 C-31.96201031 83.04177213 -24.35428897 84.73717319 -16.5 86.3125 C-16.5 86.9725 -16.5 87.6325 -16.5 88.3125 C-24.03047404 89.07744657 -29.60050523 87.46197949 -36.51953125 84.50390625 C-39.38436142 83.22964914 -39.38436142 83.22964914 -42.13671875 82.90234375 C-45.21361599 82.13439088 -46.32192143 80.57435082 -48.5 78.3125 C-51.14578501 76.78126077 -51.14578501 76.78126077 -54 75.5625 C-54.9384375 75.13453125 -55.876875 74.7065625 -56.84375 74.265625 C-59.65714725 73.08734067 -59.65714725 73.08734067 -63.5 73.3125 C-63.5 74.9625 -63.5 76.6125 -63.5 78.3125 C-62.76394531 78.41175781 -62.02789062 78.51101562 -61.26953125 78.61328125 C-56.66846757 79.77490382 -53.50624643 82.71378165 -50.5 86.3125 C-50 89.75 -50 89.75 -50.5 92.3125 C-53.1875 92.625 -53.1875 92.625 -56.5 92.3125 C-60.33039796 89.21170165 -62.9729365 85.5242725 -65.5 81.3125 C-65.5 80.6525 -65.5 79.9925 -65.5 79.3125 C-70.12 78.6525 -74.74 77.9925 -79.5 77.3125 C-79.5 76.6525 -79.5 75.9925 -79.5 75.3125 C-78.08344207 75.2852585 -76.66672955 75.26599533 -75.25 75.25 C-74.46109375 75.23839844 -73.6721875 75.22679688 -72.859375 75.21484375 C-70.59308998 75.30864694 -68.6711105 75.68008937 -66.5 76.3125 C-66.5 74.6625 -66.5 73.0125 -66.5 71.3125 C-63.48390272 69.72508038 -61.39024702 69.07538477 -58.05078125 69.96484375 C-53.5531094 71.74643275 -49.67407616 73.8080543 -45.5 76.3125 C-45.17 69.0525 -44.84 61.7925 -44.5 54.3125 C-45.82 53.6525 -47.14 52.9925 -48.5 52.3125 C-52.78266757 47.41802278 -53.77068846 42.65563298 -53.5 36.3125 C-52.74908862 32.55319049 -51.72206541 28.94417461 -50.5 25.3125 C-53.42160774 32.21564759 -54.98279842 38.37741388 -55.32421875 45.87890625 C-55.5 48.3125 -55.5 48.3125 -56.5 50.3125 C-57.82 50.3125 -59.14 50.3125 -60.5 50.3125 C-62.09412284 47.12425432 -61.60174735 43.68353338 -61.5625 40.1875 C-61.55798828 39.43339844 -61.55347656 38.67929687 -61.54882812 37.90234375 C-61.53703499 36.03902873 -61.51909942 34.17575445 -61.5 32.3125 C-61.96019531 33.26382813 -62.42039062 34.21515625 -62.89453125 35.1953125 C-64.25910333 37.84477362 -65.28067715 39.41022327 -67.5 41.3125 C-68.49 40.9825 -69.48 40.6525 -70.5 40.3125 C-68.05125811 26.95572603 -63.22933609 16.37748796 -52.4921875 7.6875 C-43.80666407 1.7799375 -34.43735243 0.85890268 -24.1875 1.0625 C-22.60098633 1.07023438 -22.60098633 1.07023438 -20.98242188 1.078125 C-13.14499047 1.15724103 -13.14499047 1.15724103 -9.85083008 1.95019531 C-6.2980359 2.49774403 -3.88842394 0.01944212 0 0 Z M-4.5 6.3125 C-3.5 8.3125 -3.5 8.3125 -3.5 8.3125 Z M-3.5 10.3125 C-3.5 11.9625 -3.5 13.6125 -3.5 15.3125 C-3.17 15.3125 -2.84 15.3125 -2.5 15.3125 C-2.5 13.6625 -2.5 12.0125 -2.5 10.3125 C-2.83 10.3125 -3.16 10.3125 -3.5 10.3125 Z M-57.5 20.3125 C-56.5 22.3125 -56.5 22.3125 -56.5 22.3125 Z M-3.5 21.3125 C-3.5 22.9625 -3.5 24.6125 -3.5 26.3125 C-3.17 26.3125 -2.84 26.3125 -2.5 26.3125 C-2.5 24.6625 -2.5 23.0125 -2.5 21.3125 C-2.83 21.3125 -3.16 21.3125 -3.5 21.3125 Z M-58.5 22.3125 C-57.5 24.3125 -57.5 24.3125 -57.5 24.3125 Z M-49.5 22.3125 C-48.5 24.3125 -48.5 24.3125 -48.5 24.3125 Z M-43.5 30.3125 C-46.24542252 35.08451202 -46.84297936 39.0024427 -45.6875 44.375 C-45.31535789 45.69441295 -44.92796762 47.01012371 -44.5 48.3125 C-43.84 47.6525 -43.18 46.9925 -42.5 46.3125 C-42.17 47.9625 -41.84 49.6125 -41.5 51.3125 C-40.7884375 50.2915625 -40.7884375 50.2915625 -40.0625 49.25 C-37.22750125 46.00012338 -34.17072958 43.61802382 -30.71875 41.05859375 C-26.30630551 37.6244026 -26.30630551 37.6244026 -23.625 32.875 C-23.47543533 29.80892428 -24.10514107 28.02880423 -25.5 25.3125 C-27.4664934 22.95246087 -27.4664934 22.95246087 -31.125 22.75 C-36.74495172 22.9137873 -40.095995 26.08280958 -43.5 30.3125 Z M-59.5 24.3125 C-58.5 26.3125 -58.5 26.3125 -58.5 26.3125 Z M-60.5 26.3125 C-59.5 29.3125 -59.5 29.3125 -59.5 29.3125 Z M-4.5 27.3125 C-3.5 29.3125 -3.5 29.3125 -3.5 29.3125 Z M-60.5 82.3125 C-59.23882275 86.20112987 -58.04735833 88.20625599 -54.5 90.3125 C-53.84 90.3125 -53.18 90.3125 -52.5 90.3125 C-53.76117725 86.42387013 -54.95264167 84.41874401 -58.5 82.3125 C-59.16 82.3125 -59.82 82.3125 -60.5 82.3125 Z " fill="#B4594C" transform="translate(82.5,1.6875)"/>
<path d="M0 0 C0.33 0 0.66 0 1 0 C1.28974684 4.07071197 1.57433147 8.14175155 1.85449219 12.21313477 C1.95013897 13.5931124 2.04710513 14.97299934 2.14550781 16.3527832 C2.73099088 24.57643052 3.15634042 32.75195737 3 41 C10.53798969 43.72927213 18.14571103 45.42467319 26 47 C26 47.66 26 48.32 26 49 C18.46952596 49.76494657 12.89949477 48.14947949 5.98046875 45.19140625 C3.11563858 43.91714914 3.11563858 43.91714914 0.36328125 43.58984375 C-2.71361599 42.82189088 -3.82192143 41.26185082 -6 39 C-8.64578501 37.46876077 -8.64578501 37.46876077 -11.5 36.25 C-12.4384375 35.82203125 -13.376875 35.3940625 -14.34375 34.953125 C-17.15714725 33.77484067 -17.15714725 33.77484067 -21 34 C-21 35.65 -21 37.3 -21 39 C-20.26394531 39.09925781 -19.52789063 39.19851562 -18.76953125 39.30078125 C-14.16846757 40.46240382 -11.00624643 43.40128165 -8 47 C-7.5 50.4375 -7.5 50.4375 -8 53 C-10.6875 53.3125 -10.6875 53.3125 -14 53 C-17.83039796 49.89920165 -20.4729365 46.2117725 -23 42 C-23 41.34 -23 40.68 -23 40 C-27.62 39.34 -32.24 38.68 -37 38 C-37 37.34 -37 36.68 -37 36 C-35.58344207 35.9727585 -34.16672955 35.95349533 -32.75 35.9375 C-31.96109375 35.92589844 -31.1721875 35.91429687 -30.359375 35.90234375 C-28.09308998 35.99614694 -26.1711105 36.36758937 -24 37 C-24 35.35 -24 33.7 -24 32 C-20.98390272 30.41258038 -18.89024702 29.76288477 -15.55078125 30.65234375 C-11.10295682 32.41418751 -7.0884489 34.52072102 -3 37 C-2.94465088 36.12786865 -2.88930176 35.2557373 -2.83227539 34.35717773 C-2.62384729 31.09368385 -2.41295514 27.83036796 -2.20043945 24.56713867 C-2.10929563 23.15997489 -2.01910872 21.75274877 -1.92993164 20.34545898 C-1.80091351 18.312162 -1.66835258 16.27912081 -1.53515625 14.24609375 C-1.456604 13.02591553 -1.37805176 11.8057373 -1.29711914 10.54858398 C-1.00033247 7.00397076 -0.53824274 3.51533626 0 0 Z M-18 43 C-16.73882275 46.88862987 -15.54735833 48.89375599 -12 51 C-11.34 51 -10.68 51 -10 51 C-11.26117725 47.11137013 -12.45264167 45.10624401 -16 43 C-16.66 43 -17.32 43 -18 43 Z " fill="#BC855F" transform="translate(40,41)"/>
<path d="M0 0 C0.66 0 1.32 0 2 0 C2.70675477 11.49654424 1.8758724 21.13748155 -5.5625 30.5625 C-9.69230769 34.69230769 -9.69230769 34.69230769 -12 36 C-12.99 35.67 -13.98 35.34 -15 35 C-14.29875 34.360625 -13.5975 33.72125 -12.875 33.0625 C-3.49422424 23.57512452 -0.71743976 13.01287285 0 0 Z " fill="#BA875F" transform="translate(100,49)"/>
<path d="M0 0 C-0.33 0.99 -0.66 1.98 -1 3 C-5.39529916 4.98834962 -9.22037853 5.19118486 -14 5 C-14 4.34 -14 3.68 -14 3 C-12.23050388 2.49528803 -10.45934777 1.99639315 -8.6875 1.5 C-7.70136719 1.2215625 -6.71523437 0.943125 -5.69921875 0.65625 C-3 0 -3 0 0 0 Z " fill="#BC875F" transform="translate(83,85)"/>
</svg>
