<?xml version="1.0" encoding="UTF-8"?>
<svg version="1.1" xmlns="http://www.w3.org/2000/svg" width="105" height="105">
<path d="M0 0 C1.98 3.96 3.96 7.92 6 12 C7.65 12 9.3 12 11 12 C11 13.32 11 14.64 11 16 C10.34 16.66 9.68 17.32 9 18 C9.33322266 18.49250244 9.66644531 18.98500488 10.00976562 19.49243164 C22.53170089 38.92989024 21.11390126 57.75572946 20 80 C14.72 80 9.44 80 4 80 C4.03222656 77.9271875 4.06445312 75.854375 4.09765625 73.71875 C4.09069652 71.6865099 4.0834056 69.65425723 4.06713867 67.62207031 C4.06407741 66.2216225 4.07677123 64.82104033 4.10620117 63.42089844 C4.43905964 54.94388642 4.43905964 54.94388642 1.03295898 47.47460938 C-1.33732352 45.41890322 -1.33732352 45.41890322 -3.83764648 43.64648438 C-6.80541195 41.38673386 -7.83898291 38.9732098 -9.0625 35.5 C-9.44535156 34.4584375 -9.82820313 33.416875 -10.22265625 32.34375 C-10.47917969 31.5703125 -10.73570313 30.796875 -11 30 C-12.98 30.99 -12.98 30.99 -15 32 C-16.4606285 29.35261084 -17 28.10551666 -17 25 C-18.9375006 22.81222534 -18.9375006 22.81222534 -21 21 C-21.66 21.66 -22.32 22.32 -23 23 C-25.625 22.625 -25.625 22.625 -28 22 C-29.45535677 18.24032833 -28.79626335 15.98687723 -27.25 12.4375 C-23.6165545 4.61474608 -23.6165545 4.61474608 -18.671875 2.734375 C-17.36858289 2.39070771 -16.06099594 2.06299707 -14.75 1.75 C-14.10675781 1.57726562 -13.46351562 1.40453125 -12.80078125 1.2265625 C-8.46002876 0.12609004 -4.46427846 -0.16191684 0 0 Z M-22 10 C-21 12 -21 12 -21 12 Z M-13 10 C-11.515 10.99 -11.515 10.99 -10 12 C-8.68 11.34 -7.36 10.68 -6 10 C-8.31 10 -10.62 10 -13 10 Z M-18 11 C-17.34 11.66 -16.68 12.32 -16 13 C-15.67 12.34 -15.34 11.68 -15 11 C-15.99 11 -16.98 11 -18 11 Z M-12 12 C-12.33 13.98 -12.66 15.96 -13 18 C-12.01 18 -11.02 18 -10 18 C-10.33 16.02 -10.66 14.04 -11 12 C-11.33 12 -11.66 12 -12 12 Z M-6 12 C-6 14.64 -6 17.28 -6 20 C-6.99 20.495 -6.99 20.495 -8 21 C-7.01 21.33 -6.02 21.66 -5 22 C-5 18.7 -5 15.4 -5 12 C-5.33 12 -5.66 12 -6 12 Z M-23 13 C-23 13.66 -23 14.32 -23 15 C-22.34 14.67 -21.68 14.34 -21 14 C-21.66 13.67 -22.32 13.34 -23 13 Z M-18 13 C-18 13.66 -18 14.32 -18 15 C-18.99 15 -19.98 15 -21 15 C-20.67 15.66 -20.34 16.32 -20 17 C-18.68 16.34 -17.36 15.68 -16 15 C-16.66 14.34 -17.32 13.68 -18 13 Z " fill="#D3B198" transform="translate(81,24)"/>
<path d="M0 0 C0.495 1.98 0.495 1.98 1 4 C0.2575 4.2475 -0.485 4.495 -1.25 4.75 C-4.85099634 6.38681652 -7.22204346 8.44408692 -9 12 C-9.33 12.33 -9.66 12.66 -10 13 C-10 14.32 -10 15.64 -10 17 C-9.34 15.68 -8.68 14.36 -8 13 C-7 14 -7 14 -6.9375 16.5625 C-6.958125 17.366875 -6.97875 18.17125 -7 19 C-7.99 19.495 -7.99 19.495 -9 20 C-8.34 20.66 -7.68 21.32 -7 22 C-6.85563947 26.35831326 -7.47725964 30.67750824 -8 35 C-8.07847168 35.66 -8.15694336 36.32 -8.23779297 37 C-9.33844511 45.65541193 -11.23111156 52.29885786 -16.4140625 59.515625 C-18.78943223 63.23664754 -19.3606796 66.6668284 -20 71 C-25.94 71 -31.88 71 -38 71 C-37.938125 69.2675 -37.87625 67.535 -37.8125 65.75 C-37.79249294 59.65451582 -38.52463334 53.88545855 -39.5 47.875 C-41.42569881 35.4626403 -42.51403512 26.96710677 -35.33984375 15.984375 C-32.01511716 11.74382222 -29.12731689 10.28605968 -24 9 C-23.13632812 8.7215625 -22.27265625 8.443125 -21.3828125 8.15625 C-17.2887594 6.84420924 -13.22453276 5.80146278 -9 5 C-8.67 4.01 -8.34 3.02 -8 2 C-5.01540871 0.04457812 -3.73585209 0 0 0 Z M-11 9 C-10 11 -10 11 -10 11 Z M-15 17 C-14.67 17.99 -14.34 18.98 -14 20 C-14 19.34 -14 18.68 -14 18 C-13.34 17.67 -12.68 17.34 -12 17 C-12.99 17 -13.98 17 -15 17 Z M-27 20 C-26 22 -26 22 -26 22 Z M-15 21 C-14.01 22.485 -14.01 22.485 -13 24 C-12.67 23.01 -12.34 22.02 -12 21 C-12.99 21 -13.98 21 -15 21 Z M-28 22 C-27 24 -27 24 -27 24 Z M-29 24 C-28 26 -28 26 -28 26 Z M-15 25 C-14 27 -14 27 -14 27 Z M-19.5 30.3125 C-22.0699536 32.93098108 -22.0699536 32.93098108 -24 36 C-22.93354885 37.29633621 -22.93354885 37.29633621 -20.4375 37.0625 C-19.633125 37.041875 -18.82875 37.02125 -18 37 C-17.01 34.03 -16.02 31.06 -15 28 C-17.32288905 27.77365267 -17.32288905 27.77365267 -19.5 30.3125 Z " fill="#DCC0AC" transform="translate(45,33)"/>
<path d="M0 0 C0 1.32 0 2.64 0 4 C0.66 2.68 1.32 1.36 2 0 C3 1 3 1 3.0625 3.5625 C3.041875 4.366875 3.02125 5.17125 3 6 C1.865625 6.37125 0.73125 6.7425 -0.4375 7.125 C-2.39420421 7.87489234 -2.39420421 7.87489234 -4 9 C-4.6644218 11.98650805 -4.6644218 11.98650805 -5 15 C-7.3125 16.625 -7.3125 16.625 -10 18 C-11.36984198 19.29579647 -12.7151049 20.61992749 -14 22 C-18.9805886 16.77645585 -18.9805886 16.77645585 -19.0625 13.5 C-16.00703029 6.31065951 -12.58737613 3.91558427 -5.55859375 0.8828125 C-3 0 -3 0 0 0 Z M-5 4 C-4.67 4.99 -4.34 5.98 -4 7 C-4 6.34 -4 5.68 -4 5 C-3.34 4.67 -2.68 4.34 -2 4 C-2.99 4 -3.98 4 -5 4 Z " fill="#B35A4E" transform="translate(35,46)"/>
<path d="M0 0 C0.99 0.66 1.98 1.32 3 2 C3 2.99 3 3.98 3 5 C2.34 5 1.68 5 1 5 C0.814375 6.216875 0.62875 7.43375 0.4375 8.6875 C-1.45534875 17.21203163 -6.38206594 24.77614408 -11.3125 31.875 C-15.39774668 37.83989476 -16.25852538 43.95599111 -17 51 C-17.99 50.67 -18.98 50.34 -20 50 C-19.53218952 39.00645373 -16.19406088 31.43624713 -9.7421875 22.64453125 C-5.42186119 16.08654714 -3.010472 8.53926999 -1 1 C-0.67 0.67 -0.34 0.34 0 0 Z " fill="#B35B50" transform="translate(63,54)"/>
<path d="M0 0 C6.875 2.75 6.875 2.75 8 5 C7.67 5.66 7.34 6.32 7 7 C6.01 7 5.02 7 4 7 C3.67 9.31 3.34 11.62 3 14 C0.625 14.625 0.625 14.625 -2 15 C-2.66 14.34 -3.32 13.68 -4 13 C-3.66384435 8.18176895 -1.99072936 4.32767253 0 0 Z M3 2 C4 4 4 4 4 4 Z M2 5 C2 5.66 2 6.32 2 7 C2.66 6.67 3.32 6.34 4 6 C3.34 5.67 2.68 5.34 2 5 Z " fill="#B35B51" transform="translate(56,32)"/>
<path d="M0 0 C0.33 1.32 0.66 2.64 1 4 C0.2575 4.2475 -0.485 4.495 -1.25 4.75 C-4.85099634 6.38681652 -7.22204346 8.44408692 -9 12 C-9.66 11.67 -10.32 11.34 -11 11 C-11.625 8.4375 -11.625 8.4375 -12 6 C-11.01 5.67 -10.02 5.34 -9 5 C-8.67 4.01 -8.34 3.02 -8 2 C-5.01540871 0.04457812 -3.73585209 0 0 0 Z " fill="#AE5D4E" transform="translate(45,33)"/>
<path d="M0 0 C0.92232422 0.32484375 0.92232422 0.32484375 1.86328125 0.65625 C3.07564453 1.07390625 3.07564453 1.07390625 4.3125 1.5 C5.11300781 1.7784375 5.91351563 2.056875 6.73828125 2.34375 C9.08769422 3.13933107 9.08769422 3.13933107 12 3 C12 4.65 12 6.3 12 8 C10.56163249 7.88541307 9.12429034 7.75790884 7.6875 7.625 C6.88699219 7.55539063 6.08648437 7.48578125 5.26171875 7.4140625 C3 7 3 7 0 5 C-0.1875 2.375 -0.1875 2.375 0 0 Z M3 3 C4 5 4 5 4 5 Z " fill="#B15B4F" transform="translate(39,56)"/>
<path d="M0 0 C1.32 0 2.64 0 4 0 C4 2.97 4 5.94 4 9 C1.525 8.01 1.525 8.01 -1 7 C-1.04254356 5.00045254 -1.04080783 2.99958364 -1 1 C-0.67 0.67 -0.34 0.34 0 0 Z " fill="#B05B50" transform="translate(71,35)"/>
<path d="M0 0 C1.32 0.33 2.64 0.66 4 1 C3.67 2.65 3.34 4.3 3 6 C0.525 5.01 0.525 5.01 -2 4 C-1.34 2.68 -0.68 1.36 0 0 Z " fill="#AE5D4E" transform="translate(66,35)"/>
<path d="M0 0 C2.475 0.495 2.475 0.495 5 1 C4.67 2.32 4.34 3.64 4 5 C2.68 4.67 1.36 4.34 0 4 C0 2.68 0 1.36 0 0 Z " fill="#D77439" transform="translate(16,25)"/>
<path d="M0 0 C1.98 0.495 1.98 0.495 4 1 C3.67 2.32 3.34 3.64 3 5 C1.68 4.67 0.36 4.34 -1 4 C-0.67 2.68 -0.34 1.36 0 0 Z " fill="#D37736" transform="translate(40,14)"/>
<path d="M0 0 C1.32 0 2.64 0 4 0 C3.67 1.65 3.34 3.3 3 5 C1.68 4.34 0.36 3.68 -1 3 C-0.67 2.01 -0.34 1.02 0 0 Z " fill="#D97538" transform="translate(31,28)"/>
<path d="M0 0 C1.32 0.66 2.64 1.32 4 2 C3.67 2.99 3.34 3.98 3 5 C1.68 5 0.36 5 -1 5 C-0.67 3.35 -0.34 1.7 0 0 Z " fill="#D37639" transform="translate(91,14)"/>
<path d="M0 0 C1.32 0.66 2.64 1.32 4 2 C3.67 2.99 3.34 3.98 3 5 C1.68 5 0.36 5 -1 5 C-1.33 4.01 -1.66 3.02 -2 2 C-1.34 1.34 -0.68 0.68 0 0 Z " fill="#D67537" transform="translate(62,12)"/>
<path d="M0 0 C1.32 0 2.64 0 4 0 C4 1.32 4 2.64 4 4 C3.01 4.33 2.02 4.66 1 5 C0.34 4.67 -0.32 4.34 -1 4 C-0.67 2.68 -0.34 1.36 0 0 Z " fill="#D17637" transform="translate(76,1)"/>
<path d="M0 0 C1.32 0 2.64 0 4 0 C3.67 1.65 3.34 3.3 3 5 C2.01 5 1.02 5 0 5 C0 3.35 0 1.7 0 0 Z " fill="#B25A50" transform="translate(52,59)"/>
<path d="M0 0 C2.475 0.495 2.475 0.495 5 1 C4.34 2.32 3.68 3.64 3 5 C2.01 4.34 1.02 3.68 0 3 C0 2.01 0 1.02 0 0 Z " fill="#D6773A" transform="translate(88,36)"/>
<path d="M0 0 C1.32 0.66 2.64 1.32 4 2 C3.67 2.99 3.34 3.98 3 5 C1.68 4.34 0.36 3.68 -1 3 C-0.67 2.01 -0.34 1.02 0 0 Z " fill="#B15B54" transform="translate(65,51)"/>
<path d="M0 0 C1.32 0.66 2.64 1.32 4 2 C2.625 3.5 2.625 3.5 1 5 C0.34 5 -0.32 5 -1 5 C-0.67 3.35 -0.34 1.7 0 0 Z " fill="#D5773E" transform="translate(10,42)"/>
<path d="M0 0 C1.32 0 2.64 0 4 0 C4 1.32 4 2.64 4 4 C2.68 4 1.36 4 0 4 C0 2.68 0 1.36 0 0 Z " fill="#BA584D" transform="translate(46,32)"/>
<path d="M0 0 C1.32 0.33 2.64 0.66 4 1 C3.67 1.99 3.34 2.98 3 4 C2.01 4 1.02 4 0 4 C0 2.68 0 1.36 0 0 Z " fill="#AD6050" transform="translate(51,32)"/>
</svg>
